<svg width="259" height="187" viewBox="0 0 259 187" fill="none" xmlns="http://www.w3.org/2000/svg">
<g clip-path="url(#clip0)">
<path d="M259 187C245.654 185.038 232.82 183.347 220.496 181.927L225.369 174.013C223.727 173.526 216.508 178.038 216.508 178.038L222.905 155.031C214.643 155.829 210.439 179.332 210.439 179.332L201.209 171.336L205.677 180.298C167.959 176.391 135.385 174.856 107.987 174.679L112.157 167.906C110.515 167.419 103.297 171.93 103.297 171.93L109.693 148.923C101.431 149.722 97.2268 173.224 97.2268 173.224L87.9969 165.229L92.729 174.721C69.7595 175 51.0281 176.23 36.5702 177.665C40.7893 167.103 55.1181 157.105 55.1181 157.105C44.176 159.789 38.4358 164.344 35.4361 168.601C35.2068 155.535 36.7493 131.319 48.2096 104.554C48.2096 104.554 25.5874 145.798 28.4692 173.567L28.8136 178.497C9.63987 180.715 0 183.07 0 183.07L259 187Z" fill="#3F3D56"/>
<path d="M137.719 7.48993V174.156C137.717 176.141 136.93 178.045 135.531 179.448C134.132 180.851 132.234 181.64 130.256 181.641H62.8345C61.8543 181.642 60.8835 181.45 59.9775 181.074C59.0716 180.699 58.2484 180.148 57.5551 179.452C56.8617 178.757 56.3119 177.931 55.9372 177.022C55.5624 176.114 55.3701 175.139 55.3711 174.156V7.48993C55.371 6.50632 55.564 5.53232 55.939 4.62356C56.3141 3.7148 56.8638 2.88908 57.5569 2.19356C58.2499 1.49804 59.0727 0.946338 59.9783 0.569964C60.8838 0.193589 61.8544 -8.4751e-05 62.8345 3.514e-07H72.924V1.29846C72.9238 2.93402 73.571 4.50269 74.7231 5.65945C75.8753 6.8162 77.4382 7.46632 79.0679 7.46679H113.359C114.671 7.4696 115.949 7.04759 117.002 6.26347C117.215 6.10797 117.417 5.93786 117.607 5.75437C118.207 5.17919 118.685 4.48765 119.011 3.7217C119.337 2.95574 119.504 2.13133 119.503 1.29846V3.514e-07H130.256C131.236 -0.000301002 132.207 0.193227 133.112 0.569524C134.018 0.945822 134.841 1.49751 135.534 2.19308C136.227 2.88864 136.777 3.71445 137.152 4.6233C137.527 5.53216 137.72 6.50626 137.719 7.48993Z" fill="#3F3D56"/>
<path d="M74.1538 29.5689C75.1443 29.5689 75.9473 28.7631 75.9473 27.7691C75.9473 26.7751 75.1443 25.9692 74.1538 25.9692C73.1633 25.9692 72.3604 26.7751 72.3604 27.7691C72.3604 28.7631 73.1633 29.5689 74.1538 29.5689Z" fill="#F2F2F2"/>
<path d="M117.607 5.75439C117.417 5.93789 117.215 6.108 117.002 6.26349C119.199 10.1426 122.175 13.5214 125.741 16.1855C129.307 18.8496 133.386 20.741 137.719 21.7396V20.9374C133.503 19.9393 129.539 18.0747 126.077 15.4614C122.616 12.8481 119.731 9.54287 117.607 5.75439Z" fill="#38D39F"/>
<path d="M102.283 7.4668H101.443C104.426 15.074 109.346 21.7622 115.712 26.863C122.078 31.9639 129.667 35.2987 137.719 36.5343V35.7373C129.876 34.5149 122.485 31.2658 116.272 26.3093C110.059 21.3527 105.238 14.8592 102.283 7.4668Z" fill="#38D39F"/>
<path d="M86.8029 7.4668H85.9933C92.7649 31.0551 113.198 48.6139 137.719 51.4653V50.6811C113.623 47.8425 93.5412 30.618 86.8029 7.4668Z" fill="#38D39F"/>
<path d="M68.2608 41.0936H67.794V40.6251H67.703V41.0936H67.236V41.1851H67.703V41.6536H67.794V41.1851H68.2608V41.0936Z" fill="#F2F2F2"/>
<path d="M99.7746 17.6955H99.3078V17.2271H99.2168V17.6955H98.7498V17.7871H99.2168V18.2555H99.3078V17.7871H99.7746V17.6955Z" fill="#F2F2F2"/>
<path d="M72.8726 59.6063H72.4058V59.1378H72.3148V59.6063H71.8478V59.6978H72.3148V60.1663H72.4058V59.6978H72.8726V59.6063Z" fill="#F2F2F2"/>
<path d="M94.3942 45.9789H93.9274V45.5104H93.8365V45.9789H93.3694V46.0704H93.8365V46.5389H93.9274V46.0704H94.3942V45.9789Z" fill="#F2F2F2"/>
<path d="M125.139 54.4638H124.673V53.9954H124.582V54.4638H124.115V54.5554H124.582V55.0238H124.673V54.5554H125.139V54.4638Z" fill="#F2F2F2"/>
<path d="M119.759 33.1687C120.325 33.1687 120.784 32.7082 120.784 32.1402C120.784 31.5722 120.325 31.1117 119.759 31.1117C119.193 31.1117 118.734 31.5722 118.734 32.1402C118.734 32.7082 119.193 33.1687 119.759 33.1687Z" fill="#FF6584"/>
<path d="M83.0442 56.2581L82.4626 56.3481C82.6446 57.5154 82.788 58.7084 82.8931 59.8886L83.4798 59.8372C83.3748 58.6416 83.2287 57.4383 83.0442 56.2581Z" fill="#E6E6E6"/>
<path d="M81.4532 49.2284L80.8895 49.4007C81.2303 50.532 81.5352 51.6916 81.7939 52.8461L82.3704 52.715C82.1065 51.5476 81.7965 50.3752 81.4532 49.2284Z" fill="#E6E6E6"/>
<path d="M78.9141 42.4867L78.3787 42.7335C78.8706 43.8109 79.3318 44.9165 79.7494 46.0221L80.3002 45.8138C79.8775 44.6954 79.4137 43.5743 78.9141 42.4867Z" fill="#E6E6E6"/>
<path d="M75.4811 36.1666L74.984 36.4829C75.6168 37.4805 76.2241 38.5141 76.7877 39.5503L77.3053 39.2675C76.7365 38.2185 76.1216 37.1745 75.4811 36.1666Z" fill="#E6E6E6"/>
<path d="M71.2125 30.3738L70.7642 30.7569C71.5277 31.6568 72.2707 32.5979 72.9727 33.5492L73.4441 33.197C72.737 32.2353 71.9863 31.284 71.2125 30.3738Z" fill="#E6E6E6"/>
<path d="M66.196 25.2158L65.804 25.6555C66.6853 26.4449 67.5488 27.2754 68.3712 28.1213L68.7939 27.7073C67.9612 26.8511 67.0876 26.0129 66.196 25.2158Z" fill="#E6E6E6"/>
<path d="M60.5285 20.7882L60.198 21.2767C61.1767 21.9375 62.1452 22.6421 63.0752 23.3697L63.4391 22.9043C62.4962 22.1689 61.5175 21.4567 60.5285 20.7882Z" fill="#E6E6E6"/>
<path d="M55.3711 17.7131V18.3817C55.9834 18.7031 56.5907 19.0399 57.1851 19.3844L57.4797 18.8727C56.7879 18.4716 56.0851 18.0851 55.3711 17.7131Z" fill="#E6E6E6"/>
<path d="M82.9111 111.797C83.0067 111.222 83.0941 110.635 83.1711 110.052L83.7551 110.13C83.6773 110.719 83.5888 111.313 83.4923 111.894L82.9111 111.797Z" fill="#E6E6E6"/>
<path d="M81.269 118.734L81.832 118.91C82.1853 117.767 82.505 116.597 82.7819 115.431L82.2082 115.294C81.9338 116.448 81.6197 117.604 81.269 118.734Z" fill="#E6E6E6"/>
<path d="M78.6963 125.376L79.2308 125.627C79.7391 124.545 80.2147 123.431 80.6462 122.314L80.0965 122.099C79.6701 123.203 79.1994 124.306 78.6963 125.376Z" fill="#E6E6E6"/>
<path d="M75.2346 131.607L75.7287 131.929C76.3802 130.926 77.0054 129.886 77.5873 128.841L77.0735 128.551C76.4992 129.586 75.8791 130.613 75.2346 131.607Z" fill="#E6E6E6"/>
<path d="M70.9517 137.299L71.3982 137.687C72.182 136.78 72.9418 135.836 73.6621 134.882L73.1903 134.528C72.4802 135.471 71.7279 136.403 70.9517 137.299Z" fill="#E6E6E6"/>
<path d="M65.9363 142.35L66.3243 142.795C67.2251 142.006 68.1061 141.174 68.948 140.328L68.5312 139.909C67.699 140.746 66.8256 141.567 65.9363 142.35Z" fill="#E6E6E6"/>
<path d="M60.2861 146.667L60.6116 147.162C61.6063 146.503 62.5943 145.8 63.5421 145.076L63.1859 144.604C62.2472 145.322 61.2713 146.017 60.2861 146.667Z" fill="#E6E6E6"/>
<path d="M57.5463 149.04C56.834 149.444 56.1064 149.835 55.3711 150.205V149.542C56.0065 149.218 56.6368 148.876 57.2542 148.529L57.5463 149.04Z" fill="#E6E6E6"/>
<path d="M83.0839 63.536L83.6728 63.5253C83.6836 64.1221 83.6844 64.722 83.6752 65.3087L83.0863 65.2995C83.0953 64.7195 83.0945 64.1262 83.0839 63.536Z" fill="#E6E6E6"/>
<path d="M57.9587 77.5559H118.222C122.707 77.5559 127.008 79.3438 130.179 82.5263C133.35 85.7088 135.132 90.0252 135.132 94.5259V96.7722H74.8685C70.3838 96.7722 66.0827 94.9843 62.9115 91.8018C59.7403 88.6193 57.9587 84.3029 57.9587 79.8022V77.5559Z" fill="white"/>
<path d="M97.953 181.404C97.8942 181.308 96.5078 178.985 96.0272 174.161C95.5863 169.735 95.8698 162.275 99.725 151.869C107.028 132.155 98.0418 116.249 97.95 116.091L98.3934 115.833C98.4167 115.873 100.736 119.928 102.105 126.386C103.915 134.947 103.256 143.849 100.205 152.048C92.9144 171.728 98.3348 181.045 98.3904 181.136L97.953 181.404Z" fill="#F2F2F2"/>
<path d="M95.0972 114.933C96.9367 114.933 98.4279 113.437 98.4279 111.59C98.4279 109.744 96.9367 108.248 95.0972 108.248C93.2577 108.248 91.7665 109.744 91.7665 111.59C91.7665 113.437 93.2577 114.933 95.0972 114.933Z" fill="#38D39F"/>
<path d="M105.602 127.275C107.441 127.275 108.932 125.778 108.932 123.932C108.932 122.086 107.441 120.59 105.602 120.59C103.762 120.59 102.271 122.086 102.271 123.932C102.271 125.778 103.762 127.275 105.602 127.275Z" fill="#F2F2F2"/>
<path d="M98.428 135.503C100.268 135.503 101.759 134.006 101.759 132.16C101.759 130.314 100.268 128.818 98.428 128.818C96.5885 128.818 95.0973 130.314 95.0973 132.16C95.0973 134.006 96.5885 135.503 98.428 135.503Z" fill="#38D39F"/>
<path d="M107.139 142.445C108.979 142.445 110.47 140.949 110.47 139.102C110.47 137.256 108.979 135.76 107.139 135.76C105.3 135.76 103.808 137.256 103.808 139.102C103.808 140.949 105.3 142.445 107.139 142.445Z" fill="#38D39F"/>
<path d="M95.8659 153.244C97.7054 153.244 99.1966 151.748 99.1966 149.902C99.1966 148.055 97.7054 146.559 95.8659 146.559C94.0264 146.559 92.5352 148.055 92.5352 149.902C92.5352 151.748 94.0264 153.244 95.8659 153.244Z" fill="#F2F2F2"/>
<path d="M99.9652 181.527C99.9652 181.527 96.6344 173.3 106.627 167.129L99.9652 181.527Z" fill="#F2F2F2"/>
<path d="M95.8688 181.378C95.8688 181.378 94.353 172.628 82.6206 172.703L95.8688 181.378Z" fill="#F2F2F2"/>
<path opacity="0.2" d="M82.6087 107.734C93.9287 107.734 103.105 98.5243 103.105 87.164C103.105 75.8037 93.9287 66.5944 82.6087 66.5944C71.2886 66.5944 62.1119 75.8037 62.1119 87.164C62.1119 98.5243 71.2886 107.734 82.6087 107.734Z" fill="#38D39F"/>
<path opacity="0.2" d="M82.6088 101.65C90.5806 101.65 97.0431 95.1643 97.0431 87.164C97.0431 79.1638 90.5806 72.6783 82.6088 72.6783C74.6369 72.6783 68.1744 79.1638 68.1744 87.164C68.1744 95.1643 74.6369 101.65 82.6088 101.65Z" fill="#38D39F"/>
<path d="M82.6087 96.7245C87.8701 96.7245 92.1353 92.4441 92.1353 87.164C92.1353 81.8838 87.8701 77.6034 82.6087 77.6034C77.3473 77.6034 73.082 81.8838 73.082 87.164C73.082 92.4441 77.3473 96.7245 82.6087 96.7245Z" fill="#38D39F"/>
<path d="M84.3408 85.1019C84.3409 84.8086 84.267 84.52 84.126 84.263C83.985 84.006 83.7815 83.789 83.5344 83.6322C83.2874 83.4755 83.0048 83.384 82.713 83.3663C82.4212 83.3487 82.1297 83.4054 81.8656 83.5312C81.6016 83.6571 81.3736 83.848 81.2028 84.0861C81.0321 84.3242 80.9241 84.6018 80.8891 84.893C80.854 85.1843 80.893 85.4797 81.0024 85.7517C81.1117 86.0238 81.2879 86.2636 81.5145 86.449L80.8766 90.9303H84.3408L83.7029 86.449C83.9024 86.2862 84.0632 86.0808 84.1735 85.8478C84.2839 85.6147 84.341 85.3599 84.3408 85.1019Z" fill="white"/>
<path d="M178.349 13.7046C178.349 13.7046 172.635 8.56346 164.951 18.2525C157.267 27.9414 145.248 32.6871 142.489 36.444C142.489 36.444 153.917 31.6984 157.858 29.7211C161.799 27.7437 161.602 28.1392 161.602 28.1392C161.602 28.1392 156.282 31.8961 155.296 35.6531C154.311 39.4101 155.099 42.5738 153.326 46.3308C151.553 50.0877 187.216 48.9013 187.216 48.9013C187.216 48.9013 190.763 42.7716 189.777 36.444C188.792 30.1165 189.383 14.4955 178.349 13.7046Z" fill="#2F2E41"/>
<path d="M167.542 29.8779C167.542 29.8779 168.784 38.6064 163.459 40.5658C158.134 42.5252 160.087 45.1972 160.087 45.1972L168.074 49.1161L176.594 46.4441L179.434 42.169C179.434 42.169 174.819 41.1002 176.062 37.8938C177.304 34.6875 177.659 33.6187 177.659 33.6187L167.542 29.8779Z" fill="#FFB9B9"/>
<path opacity="0.1" d="M167.542 29.8779C167.542 29.8779 168.784 38.6064 163.459 40.5658C158.134 42.5252 160.087 45.1972 160.087 45.1972L168.074 49.1161L176.594 46.4441L179.434 42.169C179.434 42.169 174.819 41.1002 176.062 37.8938C177.304 34.6875 177.659 33.6187 177.659 33.6187L167.542 29.8779Z" fill="black"/>
<path d="M189.907 54.8163C189.907 54.8163 188.664 71.2043 189.019 71.9169C189.374 72.6294 189.019 97.3896 189.019 97.3896C189.019 97.3896 191.504 110.749 188.309 111.462C185.114 112.175 185.824 96.499 185.824 96.499L182.629 75.8358L182.984 55.3507L189.907 54.8163Z" fill="#FFB9B9"/>
<path opacity="0.1" d="M189.907 54.8163C189.907 54.8163 188.664 71.2043 189.019 71.9169C189.374 72.6294 189.019 97.3896 189.019 97.3896C189.019 97.3896 191.504 110.749 188.309 111.462C185.114 112.175 185.824 96.499 185.824 96.499L182.629 75.8358L182.984 55.3507L189.907 54.8163Z" fill="black"/>
<path d="M155.294 104.159C155.294 104.159 149.437 126.425 149.614 137.291C149.792 148.157 152.099 163.298 152.099 163.298C152.099 163.298 152.454 169.889 151.922 170.602C151.389 171.314 154.584 174.342 154.584 174.342L157.957 172.383L159.199 170.958V169.711C159.199 169.711 157.247 163.654 158.844 158.845C160.442 154.035 161.329 141.922 159.732 138.182L170.737 105.406L155.294 104.159Z" fill="#FFB9B9"/>
<path d="M154.939 171.492C154.939 171.492 152.809 168.82 151.389 169.711C149.969 170.602 147.662 176.658 147.662 176.658C147.662 176.658 139.674 184.318 145.354 184.674C151.034 185.03 153.519 183.071 154.229 181.646C154.939 180.221 161.507 176.48 161.507 176.48C161.507 176.48 160.797 169.711 159.732 169.533C158.667 169.355 157.069 172.205 157.069 172.205L154.939 171.492Z" fill="#2F2E41"/>
<path d="M174.642 105.584V127.672C174.662 130.352 174.84 133.029 175.174 135.688C175.707 139.607 172.157 168.82 172.157 168.82L172.512 173.986L176.949 173.63L177.482 169.176L183.872 149.582C183.872 149.582 186.002 137.647 184.937 133.194C183.872 128.741 190.439 100.24 190.439 100.24L174.642 105.584Z" fill="#FFB9B9"/>
<path d="M171.092 172.739L172.406 172.452C172.406 172.452 173.399 170.245 174.642 170.78C175.516 171.184 176.344 171.683 177.112 172.265L177.659 173.274C177.659 173.274 178.902 175.946 180.499 177.727C182.097 179.508 183.872 183.427 181.209 183.783C178.547 184.14 174.997 184.318 173.932 183.427C172.867 182.536 173.577 181.111 172.512 180.755C171.447 180.399 170.559 179.33 170.737 178.974C170.914 178.617 171.092 172.739 171.092 172.739Z" fill="#2F2E41"/>
<path d="M174.642 36.0134C178.999 36.0134 182.53 32.4689 182.53 28.0966C182.53 23.7243 178.999 20.1798 174.642 20.1798C170.285 20.1798 166.753 23.7243 166.753 28.0966C166.753 32.4689 170.285 36.0134 174.642 36.0134Z" fill="#FFB9B9"/>
<path d="M159.732 41.9909L162.076 41.1694C162.076 41.1694 161.152 42.7034 166.122 43.5941C171.092 44.4848 176.239 44.8001 178.546 41.8814C178.546 41.8814 179.434 41.4565 180.677 42.7034C181.919 43.9503 182.629 43.5941 182.629 43.5941L181.742 48.2255L179.967 56.7758L177.659 63.1885L171.092 61.7635L163.992 56.5976L161.329 49.6505V43.2378L159.732 41.9909Z" fill="#38D39F"/>
<path d="M181.387 44.4848L183.162 43.2379C183.162 43.2379 189.197 44.3067 189.552 47.1568L184.937 56.0633C185.878 58.5416 185.814 61.2913 184.759 63.7229C182.984 67.8199 183.162 68.7106 183.162 68.7106L181.919 74.0545L159.377 75.8358C159.377 75.8358 158.489 73.6983 158.134 73.342C157.779 72.9858 157.779 71.7388 158.134 71.7388C158.489 71.7388 158.134 71.2044 157.779 70.67C157.424 70.1357 157.247 69.9575 157.779 69.245C158.312 68.5325 156.892 62.1198 156.892 62.1198V55.1727L150.857 47.1568C150.857 47.1568 152.987 43.9504 154.052 43.5941C155.117 43.2379 160.183 41.8329 160.183 41.8329L161.329 43.5268L162.927 56.4196L165.234 64.2573L174.95 62.6007L178.724 56.2414L181.209 48.7599L181.387 44.4848Z" fill="#38D39F"/>
<path d="M188.132 46.0879L189.552 47.1567C189.552 47.1567 190.794 57.132 190.439 57.8445C190.084 58.5571 183.872 59.2696 183.694 58.9133C183.517 58.5571 188.132 46.0879 188.132 46.0879Z" fill="#38D39F"/>
<path d="M158.844 41.1002L160.619 52.8569C160.619 52.8569 159.022 70.3137 159.377 73.8764L159.732 74.9451C159.732 74.9451 159.022 74.5889 158.844 75.3014C158.667 76.0139 158.844 78.3296 158.844 78.3296C158.844 78.3296 157.779 79.3984 157.424 85.2768C157.069 91.1551 152.809 105.227 154.407 105.762C156.004 106.296 165.589 108.968 170.737 108.434C175.884 107.899 194.344 101.665 194.167 100.062C193.989 98.4585 185.114 75.8358 185.114 75.8358C185.114 75.8358 183.517 73.1638 183.517 72.8076C183.517 72.4513 185.647 71.0263 185.114 69.6012C184.582 68.1762 181.742 53.2132 181.742 53.2132L183.694 42.5253L181.032 41.8127L179.079 52.1443C179.079 52.1443 171.447 55.8851 163.459 52.5006L161.684 40.3877L158.844 41.1002Z" fill="#2F2E41"/>
<path d="M167.384 22.415C167.384 22.415 180.519 31.4997 184.069 27.4027C187.619 23.3057 177.857 19.7431 177.857 19.7431L169.692 18.8524L167.384 22.415Z" fill="#2F2E41"/>
<path d="M146.976 119.058C148.328 120.068 150 120.548 151.68 120.409C153.36 120.27 154.931 119.521 156.1 118.302C157.269 117.084 157.954 115.479 158.029 113.789C158.103 112.1 157.56 110.441 156.503 109.123C155.446 107.806 153.946 106.921 152.285 106.635C150.624 106.348 148.916 106.679 147.48 107.566C146.045 108.452 144.981 109.834 144.489 111.452C143.996 113.069 144.108 114.811 144.804 116.352L126.688 131.489L124.276 128.616L123.192 129.344L121.986 127.907L122.977 127.069L121.771 125.633L120.229 126.936L120.972 127.82L119.32 129.217L118.578 128.333L116.155 130.381L117.269 131.707L118.15 130.962L119.356 132.399L118.254 133.33L120.481 135.982L117.838 138.216L120.529 141.421L146.976 119.058ZM151.499 108.904C152.402 108.981 153.261 109.325 153.969 109.893C154.677 110.461 155.201 111.226 155.476 112.093C155.75 112.96 155.762 113.889 155.51 114.762C155.258 115.636 154.754 116.415 154.061 117.001C153.368 117.587 152.518 117.953 151.617 118.054C150.716 118.155 149.806 117.985 149.002 117.567C148.197 117.149 147.534 116.501 147.097 115.704C146.659 114.908 146.467 113.999 146.544 113.093C146.648 111.878 147.228 110.754 148.157 109.969C149.086 109.183 150.288 108.8 151.499 108.904V108.904Z" fill="#38D39F"/>
<path d="M149.614 56.954C149.614 56.954 150.857 73.342 150.502 74.0546C150.147 74.7671 150.502 99.5273 150.502 99.5273C150.502 99.5273 148.017 112.887 151.212 113.6C154.407 114.312 153.697 98.6367 153.697 98.6367L156.892 77.9734L156.537 57.4884L149.614 56.954Z" fill="#FFB9B9"/>
<path d="M152.277 46.6223L150.857 47.1567C150.857 47.1567 148.194 58.379 148.904 58.379C149.614 58.379 158.134 59.4478 158.134 59.0915C158.134 58.7352 156.537 50.0068 156.537 50.0068L152.277 46.6223Z" fill="#38D39F"/>
</g>
<defs>
<clipPath id="clip0">
<rect width="259" height="187" fill="white"/>
</clipPath>
</defs>
</svg>
