<svg width="239" height="163" viewBox="0 0 239 163" fill="none" xmlns="http://www.w3.org/2000/svg">
<g clip-path="url(#clip0)">
<path opacity="0.1" d="M258.371 112.283C255.763 118.546 250.305 124.203 244.446 129.56C239.295 134.27 233.786 138.822 227.918 143.215C226.291 144.434 224.639 145.639 222.961 146.828L221.795 147.648C220.762 148.379 219.71 149.102 218.641 149.818L218.513 149.905C217.476 150.609 216.43 151.307 215.375 151.997C211.923 154.261 208.275 156.509 204.241 158.37C202.867 159.005 201.449 159.598 199.981 160.128C199.187 160.416 198.376 160.686 197.549 160.938C196.193 161.349 194.8 161.708 193.346 162.003C193.103 162.053 192.858 162.101 192.613 162.147C191.124 162.426 189.617 162.63 188.094 162.769C182.512 163.279 176.747 162.906 171.156 162.033C168.361 161.596 165.611 161.034 162.949 160.393C162.622 160.316 162.296 160.236 161.969 160.165C152.906 157.901 144.397 154.828 135.269 152.667C132.124 151.922 128.917 151.289 125.649 150.77C124.055 150.516 122.452 150.288 120.839 150.084C117.044 149.613 113.201 149.297 109.341 149.137C104.137 148.908 98.764 149.007 93.812 149.914C93.1524 150.035 92.5011 150.17 91.8583 150.321C91.0429 150.512 90.2428 150.729 89.4579 150.973C87.3421 151.655 85.2828 152.502 83.2989 153.504C82.9072 153.696 82.5201 153.891 82.133 154.087C80.9191 154.705 79.7212 155.336 78.505 155.948C76.3161 157.092 74.038 158.057 71.6932 158.834C70.4088 159.239 69.1028 159.572 67.7811 159.831C64.2836 160.531 60.5616 160.807 56.8236 160.826C55.021 160.826 53.2162 160.787 51.4319 160.693H51.3769C50.7677 160.661 50.1561 160.624 49.5446 160.579C46.7594 160.389 43.9834 160.096 41.2486 159.696C31.8784 158.324 22.9914 155.731 15.8429 151.776C6.13375 146.407 -0.0321328 138.402 0.893208 130.404C1.55744 124.642 5.68253 119.291 9.5969 114.053C16.8782 104.299 23.6992 94.3227 27.2883 83.8071C30.1995 75.2716 31.0675 66.2467 37.7671 58.5755C39.9132 56.1198 42.6572 53.8791 45.8524 51.915C48.2407 50.4553 50.744 49.192 53.3376 48.1377C56.2688 46.9391 59.2843 45.9571 62.3596 45.1995C65.0249 44.5394 67.726 44.0325 70.4495 43.6813C71.9291 43.4892 73.4271 43.3406 74.9342 43.24C76.0947 43.1592 77.2605 43.1081 78.4317 43.0868H78.6126C79.3288 43.0731 80.0449 43.0731 80.7611 43.0868C85.983 43.1675 91.1906 43.656 96.3361 44.5479C99.5565 45.0852 102.749 45.7437 105.876 46.4685C107.742 46.8999 109.591 47.3519 111.423 47.8244C111.982 47.9685 112.541 48.1148 113.093 48.2634C126.13 51.7503 137.601 56.5657 150.162 60.5168C150.226 60.5374 150.288 60.5579 150.352 60.5739C152.93 61.3654 155.547 62.0217 158.194 62.5403C160.139 62.929 162.127 63.2651 164.149 63.5601C167.246 64.0174 170.409 64.3787 173.595 64.6896L174.298 64.7582C178.973 65.2155 183.689 65.5562 188.27 65.9541C189.896 66.0958 191.509 66.2422 193.098 66.4114C194.106 66.512 195.105 66.6187 196.094 66.7315C196.804 66.8138 197.517 66.8961 198.229 66.983C198.941 67.0699 199.695 67.1613 200.428 67.2551C200.904 67.3145 201.378 67.3763 201.855 67.4426C204.741 67.8244 207.62 68.252 210.467 68.7413C212.198 69.0386 213.921 69.3587 215.623 69.7039C216.855 69.9539 218.076 70.2176 219.287 70.4951C220.185 70.6978 221.075 70.9112 221.958 71.1353C229.129 72.9348 235.84 75.2944 241.624 78.4795C256.642 86.7315 263.362 100.306 258.371 112.283Z" fill="#38D39F"/>
<path opacity="0.1" d="M57.0298 20.6699C59.7659 20.6699 61.984 18.4557 61.984 15.7242C61.984 12.9928 59.7659 10.7785 57.0298 10.7785C54.2936 10.7785 52.0756 12.9928 52.0756 15.7242C52.0756 18.4557 54.2936 20.6699 57.0298 20.6699Z" fill="#38D39F"/>
<path opacity="0.1" d="M158.293 9.8914C161.029 9.8914 163.247 7.67713 163.247 4.9457C163.247 2.21426 161.029 0 158.293 0C155.557 0 153.339 2.21426 153.339 4.9457C153.339 7.67713 155.557 9.8914 158.293 9.8914Z" fill="#38D39F"/>
<path opacity="0.1" d="M218.337 20.9672C221.073 20.9672 223.291 18.753 223.291 16.0215C223.291 13.2901 221.073 11.0758 218.337 11.0758C215.601 11.0758 213.382 13.2901 213.382 16.0215C213.382 18.753 215.601 20.9672 218.337 20.9672Z" fill="#38D39F"/>
<path opacity="0.1" d="M8.30287 35.9781C12.8884 35.9781 16.6057 32.2672 16.6057 27.6895C16.6057 23.1119 12.8884 19.401 8.30287 19.401C3.71732 19.401 0 23.1119 0 27.6895C0 32.2672 3.71732 35.9781 8.30287 35.9781Z" fill="#38D39F"/>
<path opacity="0.1" d="M16.2622 76.9065C20.8478 76.9065 24.5651 73.1955 24.5651 68.6179C24.5651 64.0402 20.8478 60.3293 16.2622 60.3293C11.6767 60.3293 7.95935 64.0402 7.95935 68.6179C7.95935 73.1955 11.6767 76.9065 16.2622 76.9065Z" fill="#38D39F"/>
<path opacity="0.1" d="M239.104 61.8407C243.69 61.8407 247.407 58.1298 247.407 53.5521C247.407 48.9745 243.69 45.2636 239.104 45.2636C234.519 45.2636 230.801 48.9745 230.801 53.5521C230.801 58.1298 234.519 61.8407 239.104 61.8407Z" fill="#38D39F"/>
<path d="M81.1619 54.7274C81.203 55.4233 81.1623 56.1216 81.0405 56.8081C80.5824 58.9322 78.6447 60.391 76.7688 61.4977C74.8929 62.6043 72.8315 63.6516 71.7161 65.5196C70.3716 67.7764 70.7999 70.8106 72.378 72.9187C73.9562 75.0269 76.4573 76.2822 79.0318 76.8058C83.7272 77.773 88.8692 76.4148 92.3897 73.168C95.9101 69.9211 97.676 64.8474 96.8125 60.1349C94.9023 60.4024 93.2005 58.7196 92.582 56.895C91.9636 55.0703 92.0919 53.0925 91.8514 51.1787C91.8339 50.8551 91.7363 50.5409 91.5674 50.2641C91.2994 49.8937 90.8253 49.7428 90.3832 49.6216C88.1752 49.0157 84.4601 47.6895 82.172 48.1971C80.1106 48.6681 81.1275 52.9988 81.1619 54.7274Z" fill="#BE6F72"/>
<path opacity="0.1" d="M81.1619 54.7274C81.203 55.4233 81.1623 56.1216 81.0405 56.8081C80.5824 58.9322 78.6447 60.391 76.7688 61.4977C74.8929 62.6043 72.8315 63.6516 71.7161 65.5196C70.3716 67.7764 70.7999 70.8106 72.378 72.9187C73.9562 75.0269 76.4573 76.2822 79.0318 76.8058C83.7272 77.773 88.8692 76.4148 92.3897 73.168C95.9101 69.9211 97.676 64.8474 96.8125 60.1349C94.9023 60.4024 93.2005 58.7196 92.582 56.895C91.9636 55.0703 92.0919 53.0925 91.8514 51.1787C91.8339 50.8551 91.7363 50.5409 91.5674 50.2641C91.2994 49.8937 90.8253 49.7428 90.3832 49.6216C88.1752 49.0157 84.4601 47.6895 82.172 48.1971C80.1106 48.6681 81.1275 52.9988 81.1619 54.7274Z" fill="black"/>
<path d="M78.4937 155.953C76.3047 157.097 74.0267 158.062 71.6819 158.839C70.3975 159.244 69.0914 159.576 67.7698 159.835C67.6762 158.077 67.7722 156.314 68.0561 154.577C68.2347 153.577 68.4981 152.587 68.5668 151.574C68.6641 150.112 68.3508 148.652 67.6621 147.358C70.2137 147.011 72.637 146.443 75.2 146.61L75.3626 146.622C75.6674 146.63 75.9689 146.686 76.2559 146.789C76.6502 146.979 76.9852 147.273 77.2247 147.639C77.3567 147.819 77.4783 148.006 77.5889 148.199C78.3127 149.448 78.5876 150.888 78.6448 152.372C78.6718 153.568 78.6213 154.764 78.4937 155.953Z" fill="#BE6F72"/>
<path d="M91.8492 150.324C91.0338 150.514 90.2337 150.731 89.4488 150.975C87.333 151.658 85.2737 152.504 83.2898 153.506C83.1609 152.884 83.098 152.249 83.102 151.613C84.271 150.808 85.5902 150.247 86.9812 149.961C88.3721 149.675 89.8064 149.672 91.1987 149.951C91.3848 149.973 91.5618 150.044 91.7118 150.157C91.7661 150.205 91.8125 150.261 91.8492 150.324Z" fill="#BE6F72"/>
<path d="M95.7865 138.781C95.6307 140.277 95.4017 141.777 94.8703 143.183C94.2954 144.692 93.3609 146.155 93.48 147.767C93.5327 148.467 93.7709 149.226 93.8052 149.919C93.1456 150.039 92.4943 150.175 91.8515 150.326C91.0361 150.516 90.236 150.734 89.4511 150.978C87.3353 151.66 85.276 152.506 83.2921 153.509C82.9004 153.701 82.5133 153.895 82.1262 154.092C81.9659 154.071 81.8079 154.046 81.6475 154.016C80.5023 153.808 79.2975 153.296 78.6493 152.382C78.501 152.171 78.3845 151.94 78.3035 151.696C77.9302 150.582 78.3195 149.194 77.5431 148.312L77.5064 148.344L77.4789 148.362C77.0536 148.746 76.5865 149.082 76.0863 149.363C74.9479 150.007 73.6866 150.404 72.3845 150.529C71.0824 150.654 69.7684 150.505 68.5279 150.09C68.0364 149.923 67.5617 149.711 67.1101 149.455C66.0611 148.858 65.0487 147.854 65.1311 146.656C65.1769 145.988 65.5595 145.348 65.4564 144.687C65.3808 144.214 65.0693 143.821 64.8357 143.402C63.3034 140.659 65.1311 137.131 64.1691 134.149C64.1462 134.078 64.1211 134.007 64.0959 133.939C64.0249 133.744 63.9447 133.557 63.8668 133.369C63.6698 132.933 63.4499 132.503 63.2759 132.055C63.1309 131.678 63.016 131.29 62.9323 130.895C62.7161 129.749 62.6392 128.58 62.7033 127.415C62.7033 124.344 63.253 121.201 64.0363 118.242C64.176 117.716 64.3318 116.973 64.5379 116.163C64.7389 115.31 65.01 114.475 65.3487 113.666C65.8068 112.615 66.4298 111.776 67.2819 111.577C68.5645 111.277 70.5251 111.91 71.8261 112.066L76.9682 112.679L87.25 113.907C89.0251 114.119 90.8895 114.364 92.3531 115.361C92.4493 115.427 92.5432 115.496 92.6371 115.569C93.0238 115.873 93.3701 116.225 93.6678 116.616C93.7732 116.751 93.8739 116.893 93.9701 117.037C94.3037 117.547 94.5875 118.087 94.8176 118.651C96.0934 121.71 96.1232 125.124 96.1323 128.437C96.1323 131.894 96.1438 135.349 95.7865 138.781Z" fill="#3F3D56"/>
<path opacity="0.1" d="M76.0749 149.377C75.7657 148.188 75.1129 146.466 75.0167 145.998C74.694 144.425 74.46 142.836 74.3158 141.237C74.0616 138.388 73.6035 134.378 74.6113 131.668C75.5573 132.171 76.3887 133.596 76.8262 134.567C78.4112 138.091 76.6269 142.417 78.1157 145.982C78.227 146.195 78.2962 146.428 78.3195 146.668C78.2937 146.972 78.1843 147.263 78.0035 147.509L77.5019 148.341L76.0749 149.377Z" fill="black"/>
<path d="M109.062 40.5991C110.748 37.8553 113.056 35.1572 112.912 31.9492C112.859 30.806 112.484 29.6879 112.198 28.5675C111.377 25.3249 111.323 21.9363 112.039 18.6693C114.872 18.215 117.771 18.8632 120.138 20.4802C120.887 20.9969 121.598 21.6394 121.927 22.4877C122.232 23.2697 122.182 24.1408 122.127 24.9777C122.001 26.9006 121.829 28.9516 120.642 30.4653C120.274 30.9386 119.82 31.3387 119.461 31.8166C118.936 32.5026 118.629 33.3394 118.329 34.1557L114.435 44.7308C112.47 50.0606 110.34 55.6351 106.011 59.3232C105.906 59.4124 102.804 55.0154 102.548 54.5742C101.51 52.7655 101.964 52.0018 103.219 50.4882C105.695 47.4952 107.039 43.8848 109.062 40.5991Z" fill="#BE6F72"/>
<path d="M64.4394 130.735C64.4261 131.525 64.3596 132.312 64.2401 133.093C64.1989 133.381 64.1508 133.667 64.0935 133.952C63.3125 138.022 61.3679 141.893 60.0074 145.858C58.214 151.092 57.4261 155.633 56.8008 160.83C54.9982 160.83 53.1933 160.791 51.4091 160.698H51.3541C50.7448 160.665 50.1333 160.629 49.5217 160.583C50.0737 155.736 49.0636 150.651 50.0508 145.799C50.4494 143.846 51.1296 141.95 51.5396 140.007C51.666 139.435 51.7616 138.856 51.8259 138.274C51.8832 137.72 51.913 137.147 52.1626 136.648C52.1854 136.6 52.2115 136.553 52.2405 136.509C52.4598 136.164 52.7318 135.855 53.0467 135.594C55.8375 133.151 59.251 131.526 62.9094 130.9C63.4293 130.829 63.9355 130.77 64.4394 130.735Z" fill="#FBBEBE"/>
<path opacity="0.1" d="M64.4394 130.735C64.4261 131.525 64.3596 132.312 64.2401 133.093C64.1989 133.381 64.1508 133.667 64.0935 133.952C63.3125 138.022 61.3679 141.893 60.0074 145.858C58.214 151.092 57.4261 155.633 56.8008 160.83C54.9982 160.83 53.1933 160.791 51.4091 160.698H51.3541C50.7448 160.665 50.1333 160.629 49.5217 160.583C50.0737 155.736 49.0636 150.651 50.0508 145.799C50.4494 143.846 51.1296 141.95 51.5396 140.007C51.666 139.435 51.7616 138.856 51.8259 138.274C51.8832 137.72 51.913 137.147 52.1626 136.648C52.1854 136.6 52.2115 136.553 52.2405 136.509C52.4598 136.164 52.7318 135.855 53.0467 135.594C55.8375 133.151 59.251 131.526 62.9094 130.9C63.4293 130.829 63.9355 130.77 64.4394 130.735Z" fill="black"/>
<path d="M52.8268 141.155C52.7897 142.425 52.685 143.693 52.513 144.953C51.9014 150.1 51.7869 155.471 51.3678 160.695C50.7585 160.663 50.147 160.627 49.5354 160.581C46.7502 160.391 43.9742 160.098 41.2394 159.698C41.4501 158.521 41.6624 157.345 41.8762 156.168C42.1373 154.725 42.3984 153.269 42.3228 151.805C42.2518 150.422 41.8807 149.075 41.5853 147.719C40.9554 144.815 40.6027 141.683 39.5651 138.944C39.024 137.407 38.1603 136.004 37.0319 134.828C41.3242 133.145 45.4493 133.049 50.0599 133.227C50.3873 133.209 50.7126 133.289 50.9944 133.456C51.2129 133.645 51.3753 133.89 51.464 134.165C52.1568 135.829 52.5916 137.588 52.7535 139.383C52.8086 139.972 52.833 140.563 52.8268 141.155Z" fill="#FBBEBE"/>
<path d="M87.4011 53.5476C92.3345 53.5476 96.3338 49.5552 96.3338 44.6302C96.3338 39.7053 92.3345 35.7129 87.4011 35.7129C82.4677 35.7129 78.4684 39.7053 78.4684 44.6302C78.4684 49.5552 82.4677 53.5476 87.4011 53.5476Z" fill="#BE6F72"/>
<path d="M89.2586 65.4716C90.4039 63.5212 91.4071 61.0861 93.6105 60.5442C94.8542 60.2355 96.1483 60.6563 97.36 61.0701C97.711 61.1531 98.0297 61.3376 98.2761 61.6006C98.4551 61.8842 98.5511 62.212 98.5533 62.5472C98.9369 66.5782 98.9238 70.6371 98.5143 74.6656C98.2235 77.5169 97.7333 80.3545 97.6463 83.2194C97.5249 87.1911 98.1799 91.1627 97.9646 95.1298C97.802 98.1366 97.1424 101.091 96.4873 104.029L93.7388 116.33C93.6896 116.711 93.5367 117.071 93.2967 117.371C93.0649 117.583 92.7876 117.739 92.4859 117.828C88.5075 119.232 84.2784 119.787 80.0716 119.458C75.8648 119.13 71.7739 117.924 68.0629 115.919C67.0711 115.374 66.0816 114.746 65.4357 113.817C64.5195 112.5 64.4348 110.758 64.7326 109.18C65.0303 107.603 65.6739 106.114 66.1068 104.566C66.7756 102.165 66.9337 99.6594 67.0848 97.1716C67.2864 93.8974 67.488 90.6025 67.1375 87.3397C66.897 85.0921 66.3954 82.8787 66.0175 80.6494C65.4609 77.2894 65.1379 73.895 65.0509 70.4905C64.9937 68.4578 65.0876 66.201 66.4962 64.7354C67.1833 64.022 68.0995 63.5921 69.0317 63.2446C70.5961 62.6684 72.3437 62.33 73.9241 62.8559C75.5045 63.3818 76.778 65.0372 76.4047 66.6583C76.2329 67.4106 75.745 68.0691 75.6259 68.8328C75.4679 69.8434 76.0038 70.8609 76.7711 71.5446C80.8985 75.267 87.1995 69.002 89.2586 65.4716Z" fill="#E3E8F4"/>
<path d="M89.5863 56.3599C90.8397 55.899 92.2019 55.8194 93.5007 56.1313C94.3275 56.3279 95.2208 56.6755 95.9835 56.3073C96.2607 56.1747 96.4897 55.9575 96.7691 55.834C97.525 55.5025 98.5053 55.9095 99.1741 55.427C99.5956 55.1229 99.733 54.5696 99.875 54.0666C100.563 51.6654 101.972 49.5329 103.913 47.957C103.673 49.7108 103.498 51.7069 104.66 53.0468C105.189 53.655 105.931 54.0369 106.682 54.3341C107.761 54.7617 108.945 55.0452 110.083 54.812C111.222 54.5788 112.287 53.719 112.468 52.5735C112.429 54.2952 110.787 55.4979 110.326 57.1602C110.152 57.7821 110.168 58.4429 110.047 59.0786C109.738 60.702 108.576 62.0053 107.562 63.3132C104.321 67.5199 102.251 72.5065 101.561 77.7684C101.514 78.3928 101.383 79.0081 101.171 79.5976C100.947 80.0498 100.693 80.4867 100.411 80.9055C98.732 83.7362 99.2497 87.3077 99.82 90.5408C100.711 95.6054 101.6 100.567 103.043 105.504C103.29 106.347 103.569 107.228 104.199 107.843C104 109.839 101.982 110.749 100.168 111.611C98.3771 112.464 96.7247 113.58 95.2666 114.924C94.7444 115.404 94.229 115.944 94.0389 116.627C93.8603 117.27 93.9885 117.977 93.7595 118.601C93.5304 119.225 92.6143 119.673 92.2112 119.147C91.7073 117.265 92.5685 115.297 92.5295 113.349C92.502 112.034 92.0714 110.756 92.0096 109.441C91.95 107.953 92.3898 106.491 92.8571 105.078C94.158 101.143 95.7293 97.2448 96.1805 93.1268C96.6317 89.0089 95.7888 84.5113 92.8616 81.5732C89.387 78.0702 87.4585 73.3212 83.7342 70.1041C83.1433 69.5942 82.4745 68.9608 82.573 68.188C82.641 67.8476 82.7911 67.529 83.0104 67.2597C84.2885 65.4579 85.988 63.9877 87.3623 62.2637C88.7365 60.5397 89.836 58.555 89.5863 56.3599Z" fill="#3F3D56"/>
<path d="M77.3576 60.0481C77.1285 60.2767 76.9705 60.5923 76.7048 60.7889C76.3945 60.9801 76.0406 61.0894 75.6764 61.1067C74.3284 61.3111 72.9691 61.4325 71.6063 61.4703C70.461 61.4703 69.2723 61.3697 68.1706 61.6829C66.6337 62.1174 65.406 63.3292 64.6364 64.724C63.8668 66.1187 63.5027 67.6964 63.2072 69.2673C62.5559 72.7281 62.2072 76.2389 62.165 79.76C64.053 78.257 65.7355 76.5136 67.1697 74.5742C68.2691 73.0857 69.2654 71.4394 70.8344 70.4448C71.5559 69.9875 72.3667 69.6857 73.0928 69.2398C74.6067 68.3092 75.6558 66.8047 76.6636 65.3528C77.4057 64.2758 79.5518 62.1722 79.7213 60.8827C79.8656 59.6502 78.1592 59.0489 77.3576 60.0481Z" fill="#3F3D56"/>
<path d="M85.3375 38.5253C85.6203 38.6949 85.8912 38.8835 86.1483 39.09C87.7035 40.1738 89.7855 39.9726 91.666 39.7257C92.2432 39.6525 92.8364 39.5702 93.3311 39.2684C94.1259 38.7791 94.4992 37.773 94.4214 36.8424C94.3435 35.9118 93.874 35.0544 93.3013 34.3272C92.5428 33.365 91.5964 32.5666 90.5196 31.9802C89.4429 31.3938 88.2581 31.0317 87.037 30.9158C86.4047 30.8331 85.7618 30.9012 85.1611 31.1147C84.4213 31.4188 83.8647 32.0453 83.1822 32.4637C81.1688 33.6985 78.0676 33.1497 76.7689 35.1207C75.8184 36.5749 76.4963 38.5504 76.0474 40.2218C75.713 41.4703 74.7487 42.6067 74.9343 43.8802C75.0373 44.5662 75.4679 45.1652 75.8115 45.778C76.6005 47.1868 76.9655 48.7929 76.8628 50.4036C77.7446 51.0255 78.9746 50.0584 79.2197 49.0111C79.4648 47.9639 79.183 46.8481 79.3915 45.7917C79.7602 43.9374 81.4002 42.5769 82.14 40.8758C82.6714 39.6571 83.5372 37.5992 85.3375 38.5253Z" fill="#3F3D56"/>
<path d="M63.679 58.8225C63.6103 59.2387 63.5668 59.6982 63.7981 60.0504C64.2562 60.7363 65.3052 60.4894 66.1298 60.5923C67.4148 60.75 68.363 61.9642 68.6127 63.24C68.8623 64.5159 68.5646 65.8146 68.2393 67.0676C67.5033 69.9075 66.6268 72.7069 65.6099 75.4659C62.8751 75.1436 59.996 74.0941 58.5438 71.7641C57.2245 69.6445 57.3597 66.9442 56.5214 64.5936C55.9327 62.9382 54.8768 61.4977 53.8324 60.0847C55.5113 60.295 56.7115 58.3789 56.81 56.6915C56.9085 55.0041 56.3771 53.2915 56.739 51.6429C56.8237 51.2519 63.4408 52.4843 64.0844 52.9302C65.9443 54.2175 63.9722 57.0345 63.679 58.8225Z" fill="#FBBEBE"/>
<path opacity="0.1" d="M63.679 58.8225C63.6103 59.2387 63.5668 59.6982 63.7981 60.0504C64.2562 60.7363 65.3052 60.4894 66.1298 60.5923C67.4148 60.75 68.363 61.9642 68.6127 63.24C68.8623 64.5159 68.5646 65.8146 68.2393 67.0676C67.5033 69.9075 66.6268 72.7069 65.6099 75.4659C62.8751 75.1436 59.996 74.0941 58.5438 71.7641C57.2245 69.6445 57.3597 66.9442 56.5214 64.5936C55.9327 62.9382 54.8768 61.4977 53.8324 60.0847C55.5113 60.295 56.7115 58.3789 56.81 56.6915C56.9085 55.0041 56.3771 53.2915 56.739 51.6429C56.8237 51.2519 63.4408 52.4843 64.0844 52.9302C65.9443 54.2175 63.9722 57.0345 63.679 58.8225Z" fill="black"/>
<path d="M62.2063 56.0627C67.1397 56.0627 71.1391 52.0703 71.1391 47.1454C71.1391 42.2205 67.1397 38.228 62.2063 38.228C57.2729 38.228 53.2736 42.2205 53.2736 47.1454C53.2736 52.0703 57.2729 56.0627 62.2063 56.0627Z" fill="#FBBEBE"/>
<path d="M59.4554 57.542C59.7806 57.0344 59.2263 56.3256 59.4806 55.7791C59.6317 55.4499 60.0142 55.3081 60.3097 55.0932C60.6803 54.7921 60.9758 54.4094 61.1732 53.9751C62.564 51.3073 62.9849 48.2407 62.3642 45.2978C62.1535 44.3101 61.9657 42.9976 62.8704 42.554C63.1212 42.4423 63.396 42.3951 63.6698 42.4168C65.3006 42.4694 66.8764 43.5601 68.4591 43.1737C68.9993 43.027 69.4818 42.7192 69.842 42.2914C70.2022 41.8636 70.4229 41.3362 70.4747 40.7797C70.5778 39.3026 69.4692 38.0359 68.379 37.0413C66.416 35.2395 63.4247 34.8394 60.7586 34.7959L55.7998 34.7136C54.2125 34.6862 52.4329 34.7365 51.3289 35.8729C49.7393 37.5077 50.5387 40.1829 50.3096 42.4488C50.1149 44.2573 49.2087 45.9146 47.7901 47.0561C46.7617 47.8747 45.3462 48.6567 45.3646 49.9646C45.3646 50.4219 45.5615 50.838 45.6875 51.2702C46.1937 52.9805 45.7104 54.8714 44.7393 56.3691C43.7681 57.8667 42.348 59.0191 40.8753 60.0275C40.0874 60.5648 39.272 61.0815 38.649 61.8109C37.966 62.6534 37.5604 63.686 37.4877 64.7674C37.3897 65.5937 37.5599 66.4296 37.9733 67.1522C38.9421 68.6979 41.2669 68.9242 42.8588 68.0279C44.4507 67.1316 45.4218 65.435 46.0654 63.7293C46.4502 62.7164 46.8419 61.5571 47.8268 61.1021C49.0728 60.5236 50.5295 61.4382 51.3403 62.5472C52.1511 63.6561 52.6505 65.0097 53.688 65.9106C55.3143 67.3237 58.0811 67.095 59.4554 65.435C60.438 64.2438 60.6556 62.5952 60.6006 61.0518C60.5733 59.7948 60.1749 58.5739 59.4554 57.542Z" fill="#3F3D56"/>
<path d="M62.6621 69.1643C61.6428 69.3815 60.5778 68.9014 59.8196 68.1834C59.0615 67.4654 58.5507 66.5394 58.0193 65.6431C56.6721 63.3823 55.1277 61.2445 53.4041 59.2546C51.9015 57.5237 49.8104 55.7654 47.5795 56.3005C46.8325 56.5157 46.1395 56.8857 45.5456 57.3866C43.5786 58.9413 42.0389 60.9689 41.0707 63.2795C40.1024 65.5901 39.7374 68.1081 40.0096 70.5979C40.1836 72.0544 40.5799 73.4789 40.7448 74.9423C40.8559 76.1485 40.888 77.3606 40.841 78.571C40.7791 82.2568 40.6532 86.1553 38.6628 89.2604C35.5775 94.062 33.9261 99.7966 31.6609 105.037C30.4378 107.87 29.7048 110.886 28.9856 113.886C28.5596 115.666 28.1343 117.446 27.7098 119.225L24.9384 130.863C24.6521 132.064 24.3658 133.321 24.6681 134.522C25.1262 136.314 26.8143 137.567 28.594 138.077C30.3736 138.587 32.2587 138.5 34.1071 138.516C37.6435 138.55 41.2075 138.989 44.5263 140.215C45.4746 140.565 46.4205 140.983 47.4306 141.066C48.4407 141.148 49.4462 140.885 50.3921 140.519C52.9735 139.522 55.186 137.775 57.5635 136.365C59.0486 135.471 60.6127 134.716 62.236 134.108C63.0514 133.804 63.9264 133.516 64.4876 132.85C64.9113 132.349 65.1014 131.696 65.2411 131.055C66.0153 127.452 65.4954 123.718 65.2411 120.041C64.9869 116.365 62.7858 112.48 64.6067 109.274C64.9731 108.627 65.4106 108.005 65.5984 107.287C65.8458 106.35 65.6374 105.341 65.8458 104.395C65.9992 103.695 66.368 103.066 66.62 102.396C67.0597 101.216 67.1193 99.9314 67.1147 98.6716C67.1044 95.9055 66.8127 93.1475 66.2443 90.4402C65.5228 87.0104 67.9095 83.6196 69.2769 80.3796C69.767 79.2203 70.461 78.1251 70.6649 76.8835C70.8481 75.7632 70.6122 74.6222 70.4358 73.4995C70.1726 71.7595 70.0653 69.9996 70.1152 68.2406C70.1587 66.6629 70.3259 65.0555 69.948 63.5212C69.5701 61.987 68.4913 60.4985 66.9406 60.1829C66.7668 60.1321 66.5838 60.1202 66.4048 60.1483C66.2258 60.1764 66.0552 60.2436 65.9053 60.3453C65.7263 60.5205 65.6002 60.7423 65.5412 60.9855C65.0373 62.5266 65.1358 64.1866 64.854 65.7871C64.5723 67.3877 64.2425 68.8259 62.6621 69.1643Z" fill="#F86D70"/>
<path d="M41.0471 78.9848C41.141 78.3515 40.8455 77.51 40.2042 77.5329C39.6133 77.5558 39.3499 78.2943 39.3522 78.8865C39.3544 79.4787 39.4346 80.1578 39.0155 80.574C38.6444 80.9421 38.0306 80.9307 37.6 81.2302C37.448 81.3384 37.3243 81.4815 37.2394 81.6475C37.1545 81.8134 37.1108 81.9973 37.1121 82.1837C37.1121 82.5015 37.2564 82.8056 37.2656 83.1234C37.2747 83.4412 37.0617 83.8094 36.7456 83.7888C36.5833 84.0608 36.5157 84.3787 36.5534 84.6931C36.5911 85.0074 36.732 85.3005 36.9541 85.5265C37.119 85.6866 37.3343 85.8238 37.3892 86.0478C37.4067 86.205 37.3942 86.364 37.3526 86.5166C37.2564 87.1454 37.6916 87.8496 38.326 87.9182C37.971 88.172 38.042 88.7665 38.3673 89.0615C38.6925 89.3564 39.1598 89.4136 39.5972 89.4136C40.5901 89.4081 41.572 89.2052 42.4855 88.8168C42.7983 88.7137 43.0749 88.5233 43.2826 88.268C43.3789 88.1364 43.4251 87.9748 43.413 87.8122C43.4008 87.6497 43.331 87.4967 43.2161 87.3809C43.6605 87.454 44.1942 87.4952 44.485 87.1522C44.8905 86.6721 44.4553 85.961 44.027 85.4968C44.2046 85.4704 44.3706 85.3926 44.5042 85.2728C44.6379 85.1531 44.7333 84.9968 44.7787 84.8233C44.8241 84.6498 44.8174 84.4669 44.7595 84.2972C44.7016 84.1275 44.595 83.9785 44.453 83.8688C44.3064 83.7613 44.1071 83.6676 44.0865 83.487C44.0659 83.3063 44.2194 83.1897 44.2835 83.0297C44.4301 82.6707 44.0957 82.3048 43.7727 82.0876C43.0077 81.58 41.8808 81.5892 41.2005 81.077C40.5203 80.5648 40.9486 79.6708 41.0471 78.9848Z" fill="#BE6F72"/>
<path d="M88.299 44.2895C87.7442 44.3453 87.186 44.3583 86.6293 44.3284C86.5344 44.3181 86.4392 44.3453 86.3642 44.4043C86.2892 44.4634 86.2405 44.5494 86.2284 44.6439L85.1634 52.6193C85.0814 53.1982 84.844 53.7442 84.4762 54.1992C84.1731 54.5614 83.9477 54.9818 83.8141 55.4346C83.6805 55.8873 83.6416 56.3626 83.6998 56.831V70.3785C83.6998 70.3785 83.6311 72.1848 85.0214 72.1848C86.6853 72.3935 88.3689 72.3935 90.0329 72.1848C90.0329 72.1848 91.146 71.9745 91.146 70.3076V56.9682C91.2309 56.5028 91.2135 56.0245 91.0948 55.5665C90.9762 55.1085 90.7592 54.6818 90.4589 54.3158C90.1034 53.8591 89.8737 53.3176 89.7924 52.745L88.6861 44.6028C88.6735 44.5112 88.6265 44.4279 88.5546 44.3697C88.4827 44.3115 88.3913 44.2829 88.299 44.2895Z" fill="#3F3D56"/>
<path opacity="0.1" d="M88.299 44.2895C87.7442 44.3453 87.186 44.3583 86.6293 44.3284C86.5344 44.3181 86.4392 44.3453 86.3642 44.4043C86.2892 44.4634 86.2405 44.5494 86.2284 44.6439L85.1634 52.6193C85.0814 53.1982 84.844 53.7442 84.4762 54.1992C84.1731 54.5614 83.9477 54.9818 83.8141 55.4346C83.6805 55.8873 83.6416 56.3626 83.6998 56.831V70.3785C83.6998 70.3785 83.6311 72.1848 85.0214 72.1848C86.6853 72.3935 88.3689 72.3935 90.0329 72.1848C90.0329 72.1848 91.146 71.9745 91.146 70.3076V56.9682C91.2309 56.5028 91.2135 56.0245 91.0948 55.5665C90.9762 55.1085 90.7592 54.6818 90.4589 54.3158C90.1034 53.8591 89.8737 53.3176 89.7924 52.745L88.6861 44.6028C88.6735 44.5112 88.6265 44.4279 88.5546 44.3697C88.4827 44.3115 88.3913 44.2829 88.299 44.2895Z" fill="black"/>
<path d="M88.3059 57.0733H86.6179C85.2201 57.0733 84.0869 58.2045 84.0869 59.5999V65.9404C84.0869 67.3358 85.2201 68.467 86.6179 68.467H88.3059C89.7037 68.467 90.8369 67.3358 90.8369 65.9404V59.5999C90.8369 58.2045 89.7037 57.0733 88.3059 57.0733Z" fill="#38D39F"/>
<path d="M110.991 9.8274C110.501 10.096 109.991 10.3254 109.465 10.5134C109.374 10.5405 109.297 10.602 109.25 10.6847C109.204 10.7675 109.191 10.8651 109.215 10.9569L111.309 18.731C111.459 19.2953 111.452 19.8895 111.291 20.4505C111.149 20.9011 111.103 21.376 111.154 21.8454C111.206 22.3148 111.353 22.7685 111.588 23.1783L116.815 35.6809C116.815 35.6809 117.447 37.3729 118.732 36.8378C120.35 36.3899 121.904 35.7399 123.359 34.9035C123.359 34.9035 124.305 34.2815 123.664 32.745L118.517 20.4345C118.416 19.9723 118.215 19.5375 117.929 19.1601C117.643 18.7827 117.279 18.4717 116.861 18.2486C116.357 17.964 115.937 17.5535 115.64 17.0573L111.478 9.96917C111.431 9.88717 111.354 9.82661 111.263 9.80018C111.172 9.77375 111.074 9.7835 110.991 9.8274Z" fill="#3F3D56"/>
<path d="M115.932 21.6249L114.374 22.2738C113.084 22.8112 112.475 24.2908 113.013 25.5786L115.459 31.43C115.998 32.7178 117.48 33.3261 118.77 32.7887L120.328 32.1398C121.618 31.6024 122.227 30.1229 121.689 28.8351L119.243 22.9836C118.704 21.6959 117.222 21.0875 115.932 21.6249Z" fill="#38D39F"/>
<path d="M46.7136 57.7776C44.2514 58.7905 43.2779 61.9413 43.8551 64.5342C44.4323 67.1271 46.1708 69.2878 47.8657 71.3434L52.6161 77.1282C53.9285 78.7288 55.3646 80.4139 57.3665 80.9718C60.2937 81.7881 63.2209 79.9269 65.7518 78.244C73.3065 73.2185 81.382 69.0206 89.8381 65.7232C90.665 65.4031 91.5124 65.0784 92.1927 64.5067C93.6036 63.3223 93.9999 61.1387 93.2142 59.4764C92.4286 57.8142 90.5986 56.7326 88.7547 56.7189C86.9109 56.7052 85.1175 57.6793 84.0089 59.1518C83.4799 59.8537 83.0928 60.6563 82.582 61.3697C81.2902 63.1623 79.2746 64.2712 77.3025 65.2727C72.5475 67.6946 67.6526 69.8324 62.6437 71.6749C61.7275 72.0088 60.6945 72.3266 59.831 71.8853C59.3019 71.6132 58.9446 71.0987 58.6239 70.5957C57.1627 68.2996 56.0005 65.8271 55.1654 63.2377C54.5401 61.2942 54.0339 59.1769 52.5313 57.7959C50.4012 55.8386 46.5441 56.3074 44.9477 58.7105C44.9477 58.7105 43.0764 61.4428 44.2216 62.5861C45.3668 63.7293 46.7136 57.7776 46.7136 57.7776Z" fill="#FBBEBE"/>
<path d="M175.171 48.316C175.505 49.2055 175.515 50.1795 175.466 51.1284C175.407 52.2854 175.116 53.6436 174.039 54.0848C173.339 54.3661 172.473 54.1534 171.85 54.5787C171.094 55.0909 171.131 56.193 171.247 57.0939C171.57 59.5702 171.935 62.1379 173.286 64.2323C174.012 65.355 174.995 66.2902 175.991 67.1842C177.977 68.9723 180.155 70.7191 182.764 71.3159C183.189 71.4355 183.636 71.4543 184.069 71.3708C184.497 71.239 184.885 71.0033 185.199 70.6848C186.71 69.2992 187.489 67.3214 188.497 65.5288C189.209 64.2461 190.059 63.0136 190.46 61.6006C190.79 60.3659 190.768 59.0637 190.396 57.8408C190.025 56.618 189.319 55.523 188.357 54.6793C187.91 54.2975 187.416 53.9774 186.983 53.5818C185.851 52.5575 185.192 51.0872 184.921 49.5873C184.651 48.0874 184.692 46.544 184.823 45.0143C182.532 44.8382 180.258 45.1149 178.023 45.5608C177.028 45.7597 175.629 45.8512 174.729 46.3245C173.717 46.8618 174.894 47.55 175.171 48.316Z" fill="#FBBEBE"/>
<path opacity="0.1" d="M175.171 48.316C175.505 49.2055 175.515 50.1795 175.466 51.1284C175.407 52.2854 175.116 53.6436 174.039 54.0848C173.339 54.3661 172.473 54.1534 171.85 54.5787C171.094 55.0909 171.131 56.193 171.247 57.0939C171.57 59.5702 171.935 62.1379 173.286 64.2323C174.012 65.355 174.995 66.2902 175.991 67.1842C177.977 68.9723 180.155 70.7191 182.764 71.3159C183.189 71.4355 183.636 71.4543 184.069 71.3708C184.497 71.239 184.885 71.0033 185.199 70.6848C186.71 69.2992 187.489 67.3214 188.497 65.5288C189.209 64.2461 190.059 63.0136 190.46 61.6006C190.79 60.3659 190.768 59.0637 190.396 57.8408C190.025 56.618 189.319 55.523 188.357 54.6793C187.91 54.2975 187.416 53.9774 186.983 53.5818C185.851 52.5575 185.192 51.0872 184.921 49.5873C184.651 48.0874 184.692 46.544 184.823 45.0143C182.532 44.8382 180.258 45.1149 178.023 45.5608C177.028 45.7597 175.629 45.8512 174.729 46.3245C173.717 46.8618 174.894 47.55 175.171 48.316Z" fill="black"/>
<path d="M162.39 55.0452C158.671 53.7716 156.893 48.7962 153 48.2382C152.386 48.1491 151.756 48.1834 151.153 48.0416C148.911 47.5111 147.947 44.9228 147.299 42.7164C145.114 35.3607 142.26 28.1628 138.206 21.6417C136.495 18.8979 133.79 16.6434 132.555 13.6389C132.271 12.953 132.127 12.171 131.616 11.6291C131.105 11.0872 130.013 11.0095 129.735 11.7C129.658 11.9446 129.641 12.2041 129.685 12.4568L129.953 15.3035L125.294 14.8851C124.863 14.8117 124.421 14.8431 124.005 14.9765C123.555 15.2011 123.197 15.5733 122.99 16.0306C121.414 18.9871 123.093 22.8604 125.874 24.7307C129.122 26.9144 133.76 27.2459 135.917 30.5042C137.2 32.4431 137.225 34.9377 138.07 37.103C138.474 38.1388 139.062 39.09 139.532 40.0937C140.427 42.0075 140.885 44.0883 141.579 46.0821C142.573 48.9333 144.046 51.5903 145.514 54.2312C146.646 56.2707 147.805 58.3469 149.546 59.9063C150.691 60.9306 152.038 61.6897 153.384 62.4214C156.696 64.2277 160.602 65.9655 164.11 64.5799C164.312 61.4565 163.526 57.9742 162.39 55.0452Z" fill="#FBBEBE"/>
<path d="M173.685 153.474C173.403 156.458 171.589 159.161 171.165 162.033C168.371 161.596 165.62 161.034 162.958 160.393C162.631 160.316 162.306 160.236 161.978 160.165C163.485 156.049 162.173 151.439 162.571 147.056C162.61 146.636 162.665 146.215 162.739 145.799C166.19 144.623 169.308 143.055 172.926 143.512C172.997 144.244 173.071 144.978 173.142 145.709C173.287 147.171 173.43 148.632 173.572 150.09C173.718 151.212 173.755 152.345 173.685 153.474Z" fill="#FBBEBE"/>
<path d="M197.556 160.938C196.2 161.349 194.807 161.708 193.353 162.003C193.11 162.053 192.865 162.101 192.62 162.147C191.131 162.426 189.624 162.63 188.101 162.769C187.945 159.591 185.81 156.669 185.499 153.406C185.435 152.595 185.443 151.78 185.524 150.971C185.551 150.651 185.583 150.331 185.613 150.01L186.259 143.432C186.773 143.368 187.292 143.342 187.81 143.357C190.787 143.428 193.497 144.715 196.447 145.719C196.667 147.106 196.744 148.513 196.676 149.917C196.564 153.488 195.989 157.103 197.317 160.38C197.393 160.565 197.475 160.75 197.556 160.938Z" fill="#FBBEBE"/>
<path d="M158.893 110.786C159.294 113.904 157.697 116.89 157.005 119.957C156.547 121.985 156.486 124.072 156.424 126.153L156.062 138.617C156.025 139.863 155.993 141.132 156.373 142.328C157.138 144.724 159.495 146.343 161.948 146.919C164.401 147.495 166.967 147.203 169.465 146.873C170.691 146.711 171.969 146.521 172.984 145.815C174.378 144.843 174.988 143.112 175.515 141.498L177.001 136.941C178.712 140.787 177.988 144.992 179.014 149.073C179.08 149.45 179.237 149.806 179.472 150.109C179.905 150.589 180.618 150.664 181.266 150.71C185.755 151.026 190.306 151.339 194.722 150.481C195.936 150.253 197.203 149.882 198.041 148.972C199.017 147.914 199.186 146.357 199.175 144.918C199.113 139.977 197.324 135.21 196.926 130.285C196.754 128.174 196.839 126.052 196.763 123.935C196.704 122.343 196.554 120.755 196.316 119.179C196.241 118.457 196.042 117.754 195.73 117.099C195.043 115.818 193.616 115.123 192.265 114.583C181.765 110.326 170.217 110.367 158.893 110.786Z" fill="#F86D70"/>
<path d="M178.332 49.4319C183.771 49.4319 188.181 45.03 188.181 39.5999C188.181 34.1699 183.771 29.768 178.332 29.768C172.892 29.768 168.483 34.1699 168.483 39.5999C168.483 45.03 172.892 49.4319 178.332 49.4319Z" fill="#FBBEBE"/>
<path d="M186.916 56.9179C186.186 58.5184 185.036 60.119 183.325 60.5259C181.751 60.9032 180.084 60.1464 178.925 59.0191C177.766 57.8919 177.008 56.4285 176.204 55.0269C175.618 54.0026 174.965 52.9691 173.973 52.3243C172.617 51.4463 170.867 51.4691 169.268 51.7275C167.67 51.9859 166.082 52.4478 164.459 52.3426C162.436 52.2077 160.375 51.1993 158.467 51.8716C159.085 54.6336 158.863 57.6701 158.792 60.5008C158.804 60.9379 158.742 61.3739 158.609 61.7904C158.442 62.1788 158.217 62.5396 157.942 62.8605L156.11 65.2178C158.075 66.6858 159.775 68.6019 160.462 70.9547C160.849 72.2946 160.73 73.7168 160.716 75.1115C160.672 79.2066 161.563 83.2858 161.282 87.3717C160.952 92.1574 159.037 96.6801 158.05 101.374C157.204 105.404 157.045 109.547 157.578 113.63C167.844 117.176 178.421 118.992 189.273 119.586C191.19 119.691 193.261 119.707 194.834 118.608C196.142 117.693 196.875 116.127 197.125 114.549C197.375 112.971 197.203 111.366 197.029 109.779C196.557 105.488 196.086 101.197 195.615 96.9064C195.347 94.4645 195.079 92.0088 195.254 89.5599C195.384 87.7307 195.76 85.9358 196.133 84.1455L198.424 73.1566C198.751 71.5949 199.081 70.0218 199.729 68.5653C200.26 67.3763 200.996 66.2788 201.582 65.1218C202.281 63.7346 202.763 62.2487 203.011 60.7157C203.111 60.2708 203.104 59.8088 202.993 59.3667C202.748 58.6167 201.999 58.1663 201.3 57.7982C197.04 55.5633 192.475 53.9647 187.75 53.0537C187.429 54.4004 187.491 55.6626 186.916 56.9179Z" fill="#E3E8F4"/>
<path d="M185.966 50.3327C187.111 48.1423 189.253 46.6057 190.496 44.4656C191.184 43.2522 191.568 41.8914 191.617 40.4983C191.665 39.1052 191.377 37.721 190.776 36.4628C190.338 35.5711 189.745 34.7525 189.402 33.8196C189.019 32.7587 188.982 31.5903 188.54 30.5522C187.933 29.13 186.619 28.1056 185.187 27.5157C183.756 26.9258 182.21 26.7132 180.668 26.5074L175.464 25.8077C174.711 25.7071 173.93 25.6065 173.197 25.8077C172.464 26.0089 171.781 26.6057 171.722 27.3648C171.651 28.2634 172.441 29.1003 172.258 29.9829C172.191 30.2938 172.008 30.6094 172.113 30.9112C172.207 31.1128 172.369 31.2748 172.571 31.3685C173.806 32.0544 175.281 32.1162 176.619 32.5643C177.956 33.0125 179.298 34.1374 179.163 35.5368C179.09 36.289 178.604 37.071 178.934 37.7455C179.25 38.3698 180.08 38.4841 180.741 38.6784C182.883 39.2981 184.386 41.6166 184.074 43.8231C183.978 44.509 183.73 45.1652 183.68 45.8535C183.513 48.2634 183.893 48.9517 185.865 50.3533L185.966 50.3327Z" fill="#3F3D56"/>
<path d="M199.344 60.7546C199.355 61.211 199.272 61.6647 199.099 62.0876C198.385 63.6082 196.197 63.5121 194.748 64.3741C192.943 65.4488 192.544 67.8473 192.379 69.9372C192.191 72.3037 192.063 74.7045 192.549 77.0253C193.034 79.3461 194.202 81.6098 196.154 82.9702C198.529 84.6188 201.759 84.676 204.47 83.6722C207.182 82.6684 209.448 80.7272 211.413 78.6053C213.277 76.5932 214.947 74.3501 215.948 71.7961C216.124 71.3388 216.28 70.8541 216.138 70.3968C215.925 69.7108 215.176 69.3999 214.567 69.0249C213.144 68.1674 212.196 66.6721 211.704 65.0921C211.211 63.5121 211.129 61.8316 211.113 60.1738C211.094 58.4521 211.09 56.5703 209.99 55.2419C208.891 53.9134 206.985 53.5407 205.249 53.5544C203.829 53.5544 199.899 53.6893 198.93 54.9263C198.135 55.9552 199.402 59.2821 199.344 60.7546Z" fill="#BE6F72"/>
<path opacity="0.1" d="M199.344 60.7546C199.355 61.211 199.272 61.6647 199.099 62.0876C198.385 63.6082 196.197 63.5121 194.748 64.3741C192.943 65.4488 192.544 67.8473 192.379 69.9372C192.191 72.3037 192.063 74.7045 192.549 77.0253C193.034 79.3461 194.202 81.6098 196.154 82.9702C198.529 84.6188 201.759 84.676 204.47 83.6722C207.182 82.6684 209.448 80.7272 211.413 78.6053C213.277 76.5932 214.947 74.3501 215.948 71.7961C216.124 71.3388 216.28 70.8541 216.138 70.3968C215.925 69.7108 215.176 69.3999 214.567 69.0249C213.144 68.1674 212.196 66.6721 211.704 65.0921C211.211 63.5121 211.129 61.8316 211.113 60.1738C211.094 58.4521 211.09 56.5703 209.99 55.2419C208.891 53.9134 206.985 53.5407 205.249 53.5544C203.829 53.5544 199.899 53.6893 198.93 54.9263C198.135 55.9552 199.402 59.2821 199.344 60.7546Z" fill="black"/>
<path d="M187.132 122.074C187.203 122.422 187.367 122.745 187.608 123.007C187.834 123.185 188.098 123.309 188.38 123.37C195.897 125.572 203.928 124.694 211.71 123.796C210.645 120.558 209.573 117.284 209.278 113.888C209.033 111.087 209.308 108.172 208.314 105.545C208.021 104.767 190.934 108.346 189.248 108.636C188.385 108.785 187.39 108.735 186.779 109.418C186.041 110.246 185.98 112.217 185.902 113.248C185.682 116.227 186.298 119.227 187.132 122.074Z" fill="#BE6F72"/>
<path d="M204.248 158.37C202.874 159.005 201.456 159.598 199.988 160.128C199.194 160.416 198.383 160.686 197.556 160.938C196.2 161.349 194.807 161.708 193.353 162.003C192.524 159.904 191.694 157.804 190.863 155.704C190.251 154.158 189.64 152.606 189.129 151.026C188.774 149.947 188.482 148.848 188.254 147.735C187.504 143.953 187.699 140.045 188.822 136.355C191.997 136.952 195.1 137.341 198.227 137.794C199.896 138.022 201.571 138.292 203.266 138.61C203.399 139.712 203.519 140.814 203.628 141.916C203.792 143.617 203.928 145.319 204.033 147.02C204.267 150.8 204.338 154.583 204.248 158.37Z" fill="#BE6F72"/>
<path opacity="0.1" d="M204.248 158.37C202.874 159.005 201.456 159.598 199.988 160.128C199.194 160.416 198.383 160.686 197.556 160.938C196.2 161.349 194.807 161.708 193.353 162.003C192.524 159.904 191.694 157.804 190.863 155.704C190.251 154.158 189.64 152.606 189.129 151.026C188.774 149.947 188.482 148.848 188.254 147.735C187.504 143.953 187.699 140.045 188.822 136.355C191.997 136.952 195.1 137.341 198.227 137.794C199.896 138.022 201.571 138.292 203.266 138.61C203.399 139.712 203.519 140.814 203.628 141.916C203.792 143.617 203.928 145.319 204.033 147.02C204.267 150.8 204.338 154.583 204.248 158.37Z" fill="black"/>
<path d="M221.862 148.462C221.88 149.779 221.504 151.124 221.156 152.416C221.131 152.507 221.108 152.596 221.085 152.688C220.257 152.43 219.543 151.896 219.063 151.174C218.815 150.783 218.632 150.355 218.52 149.905C217.483 150.609 216.437 151.307 215.382 151.997C211.93 154.261 208.282 156.509 204.248 158.37C202.874 159.006 201.456 159.598 199.988 160.128C199.683 159.061 199.392 157.987 199.118 156.906C198.817 155.794 198.582 154.665 198.412 153.525C198.077 150.936 198.337 148.304 199.173 145.831L199.276 145.533C199.665 144.433 200.168 143.377 200.776 142.38C201.346 141.466 202.475 141.619 203.627 141.923C204.15 142.058 204.679 142.22 205.16 142.321C208.153 142.947 211.262 142.3 214.322 142.472C215.78 142.544 217.209 142.908 218.525 143.54C219.997 144.278 221.184 145.408 221.649 146.969C221.715 147.194 221.765 147.423 221.8 147.655C221.838 147.923 221.859 148.192 221.862 148.462Z" fill="#BE6F72"/>
<path d="M166.758 43.1577C162.029 38.5847 156.653 34.7091 151.154 31.085C149.723 30.1891 148.346 29.2095 147.031 28.1514C145.656 27.0081 144.459 25.6659 143 24.637C141.541 23.6081 139.736 22.9016 137.983 23.24C136.231 23.5784 134.674 25.2521 134.93 27.0036C135.159 28.5447 136.547 29.601 137.83 30.4859C140.258 32.1619 142.697 33.8425 145.338 35.1572C146.255 35.5724 147.145 36.0459 148.002 36.5748C149.646 37.6815 150.844 39.3186 152.088 40.8575C156.782 46.6782 162.532 51.565 169.037 55.2624C169.115 55.3081 171.825 49.4707 171.71 48.7139C171.458 46.9738 168.004 44.3649 166.758 43.1577Z" fill="#BE6F72"/>
<path d="M207.212 117.048C203.561 117.277 200.059 118.507 196.488 119.291C192.917 120.076 189.037 120.38 185.723 118.834L187.739 132.574C187.851 133.337 187.968 134.119 187.801 134.871C187.647 135.589 187.249 136.266 187.283 137C187.336 138.162 188.428 138.978 189.457 139.515C192.444 141.09 195.791 141.86 199.168 141.749C198.918 142.755 198.607 143.75 198.355 144.756C200.038 146.56 202.792 146.681 205.194 147.253C207.027 147.685 208.744 148.435 210.54 148.963C212.712 149.603 214.966 149.917 217.23 149.894C218.758 149.878 220.378 149.665 221.564 148.714C223.023 147.541 223.477 145.547 223.793 143.704C223.969 142.675 224.132 141.633 224.022 140.595C223.903 139.401 223.44 138.271 222.982 137.165L219.844 129.562C219.274 128.19 218.699 126.798 218.012 125.474C215.767 121.191 212.043 116.749 207.212 117.048Z" fill="#3F3D56"/>
<path d="M210.006 69.5759C210.278 68.8645 210.778 68.2635 211.429 67.8673C212.08 67.4711 212.845 67.3024 213.602 67.3877C214.518 67.5158 215.336 68.0165 216.122 68.5058L220.497 71.2313C221.221 71.6619 221.917 72.1401 222.579 72.6627C225.595 75.1595 226.759 79.2638 227.091 83.1623C227.423 87.0608 227.091 91.0256 227.867 94.86C226.021 96.3874 223.973 97.6793 222.127 99.2044C221.161 100.002 220.183 100.805 219.45 101.832C218.868 102.639 218.453 103.562 217.847 104.347C216.853 105.586 215.411 106.386 213.831 106.574C214.832 107.155 215.393 108.282 215.664 109.404C215.934 110.527 216.007 111.691 216.307 112.814C216.72 114.339 217.574 115.731 217.856 117.286C218.053 118.358 217.966 119.458 218.037 120.547C218.394 126.178 222.821 131.101 222.535 136.735C220.445 135.977 218.468 134.939 216.658 133.65C215.842 133.067 215.054 132.436 214.283 131.808L208.449 127.086C205.611 124.799 202.746 122.463 200.49 119.591C199.074 117.789 197.92 115.795 196.5 113.998C195.079 112.201 193.332 110.568 191.163 109.814C190.844 110.292 190.279 110.623 189.96 111.101C189.904 111.176 189.859 111.26 189.827 111.348C189.789 111.561 189.815 111.781 189.903 111.979C190.159 112.904 190.313 113.854 190.361 114.812L190.505 116.531C190.559 116.987 190.559 117.448 190.505 117.903C190.288 119.374 188.923 120.515 187.45 120.743C187.237 120.789 187.016 120.782 186.806 120.723C186.396 120.585 186.17 120.153 186.046 119.742C185.466 117.789 186.355 115.729 186.426 113.696C186.436 113.18 186.419 112.664 186.373 112.151L186.236 110.122C184.905 109.846 184.14 108.419 183.788 107.109C182.835 103.572 181.875 99.9109 182.427 96.2891C182.574 95.3196 182.83 94.3364 182.656 93.3669C182.427 92.0705 181.493 91.0187 181 89.7977C179.397 85.8169 182.803 81.4954 182.487 77.222C182.354 75.4271 181.213 73.8677 180.526 72.2031C180.17 71.2329 179.71 70.3044 179.152 69.4341C178.451 68.4349 177.505 67.6347 176.586 66.8298C173.75 64.3453 171.059 61.6992 168.529 58.9048C167.229 58.7702 166.01 58.2126 165.059 57.318C164.454 56.7464 163.957 55.9918 163.941 55.1618C163.925 54.3318 164.539 53.4607 165.37 53.4172C165.856 53.3921 166.309 53.6321 166.783 53.7373C168.268 54.062 169.761 52.9713 170.423 51.6017C171.085 50.2321 171.085 48.6567 171.073 47.1385C171.799 47.0099 172.545 47.0701 173.24 47.3132C173.935 47.5563 174.556 47.9741 175.043 48.5264C176.066 49.6376 176.733 51.0232 177.539 52.2991C177.867 52.866 178.289 53.3738 178.785 53.8013C179.887 54.6748 181.474 54.8394 182.436 55.8592C182.924 56.3805 183.194 57.071 183.641 57.6289C184.896 59.1998 187.193 59.3918 188.909 60.4253C190.625 61.4588 191.818 63.3475 193.719 63.9603C194.406 64.1889 195.155 64.2186 195.835 64.4724C197.407 65.0555 198.366 66.7224 198.584 68.3801C198.801 70.0378 198.43 71.7138 198.055 73.3463L197.173 77.1671C196.978 78.0131 196.829 79.0306 197.455 79.6342C197.75 79.8783 198.097 80.0526 198.469 80.1441C200.073 80.6654 201.859 81.1776 203.366 80.4391C204.079 80.0869 204.638 79.4925 205.148 78.8842C207.384 76.2548 208.87 72.8113 210.006 69.5759Z" fill="#38D39F"/>
<path d="M228.085 147.328C227.769 149.421 226.614 151.478 224.725 152.436C223.592 152.994 222.285 153.084 221.085 152.688C220.257 152.43 219.543 151.896 219.063 151.174C218.815 150.783 218.632 150.355 218.52 149.905C218.52 149.882 218.509 149.857 218.504 149.834C218.332 149.025 218.26 148.198 218.291 147.372C218.29 146.089 218.367 144.807 218.52 143.533C218.648 142.46 218.859 141.399 219.152 140.359C219.578 138.875 220.192 137.446 220.755 136.015C221.049 135.26 221.33 134.503 221.562 133.728C221.701 133.271 221.821 132.8 221.917 132.324L221.951 132.153C221.969 132.057 221.985 131.961 222.001 131.865C222.231 130.561 222.297 129.212 222.886 128.035C224.26 125.27 226.935 125.977 227.343 128.526C227.374 128.724 227.391 128.923 227.395 129.123C227.457 132.349 226.175 135.503 226.761 138.74C226.926 139.53 227.134 140.31 227.384 141.077C227.59 141.784 227.776 142.499 227.918 143.224C228.205 144.573 228.262 145.961 228.085 147.328Z" fill="#BE6F72"/>
<path d="M229.345 111.453C229.407 112.775 229.345 114.112 229.61 115.409C230.231 118.473 232.588 121.184 232.327 124.299C232.263 125.058 231.981 125.874 231.317 126.249C230.653 126.624 229.553 126.594 229.336 127.349C229.274 127.559 229.306 127.788 229.237 127.996C229.093 128.44 228.55 128.629 228.092 128.618C227.634 128.606 227.176 128.456 226.702 128.494C225.041 128.634 224.432 130.852 222.952 131.613C221.956 132.125 220.662 131.842 219.839 131.085C219.017 130.328 218.657 129.148 218.722 128.03C218.77 127.187 219.038 126.373 219.18 125.54C219.439 124.056 219.303 122.536 219.168 121.036C218.969 118.839 218.763 116.614 218.039 114.531C217.698 113.548 217.244 112.608 216.949 111.611C216.527 110.2 216.431 108.716 216.388 107.246C216.298 104.152 216.511 100.844 218.362 98.356C219.752 96.4903 221.745 94.9743 223.319 93.248C224.303 92.1665 224.587 91.8281 225.675 92.745C226.571 93.4972 227.508 94.5353 227.609 95.5551C227.883 98.1686 227.609 100.739 228.099 103.4C228.589 106.062 229.216 108.721 229.345 111.453Z" fill="#38D39F"/>
<path d="M205.588 61.093C212.04 61.093 217.269 55.8722 217.269 49.4319C217.269 42.9916 212.04 37.7707 205.588 37.7707C199.137 37.7707 193.907 42.9916 193.907 49.4319C193.907 55.8722 199.137 61.093 205.588 61.093Z" fill="#BE6F72"/>
<path d="M216.284 71.7389C216.541 71.38 216.846 70.9935 217.281 70.9181C217.609 70.8933 217.938 70.9623 218.229 71.117L221.305 72.3997C222.136 71.0294 222.626 69.48 222.734 67.8816C222.799 66.9007 222.721 65.9061 222.908 64.9412C223.188 63.5098 224.038 62.2271 224.235 60.782C224.39 59.6159 224.109 58.4429 223.939 57.2791C223.417 53.6847 223.978 50.0172 223.678 46.3977C223.378 42.7781 221.924 38.9002 218.689 37.2379C217.773 36.7806 216.786 36.5063 215.833 36.145C213.71 35.3379 211.807 34.046 209.709 33.1725C207.611 32.2991 205.146 31.899 203.112 32.9027C201.078 33.9065 199.894 36.7303 201.216 38.5733C201.651 39.1792 202.288 39.609 202.897 40.0458C204.136 40.9306 205.4 42.0236 205.687 43.519C206.2 46.2102 203.396 48.3206 202.606 50.9524C202.314 51.9801 202.288 53.0649 202.53 54.1055C202.872 55.6648 203.705 57.1373 203.676 58.7333C203.653 60.4825 202.604 62.067 202.407 63.8071C202.336 64.445 202.379 65.0921 202.299 65.7277C202.158 66.5662 201.909 67.3831 201.559 68.1583C199.727 72.7313 197.869 77.3523 195.146 81.4634C198.062 81.5128 200.944 80.8404 203.536 79.5062C203.163 81.2687 202.45 82.9417 201.436 84.4313C203.766 84.162 206.008 83.3812 208 82.1448C207.517 83.8729 206.816 85.5331 205.916 87.0859C205.994 86.9533 207.434 86.6286 207.7 86.4777C208.246 86.1677 208.685 85.6998 208.96 85.1355C209.738 83.7453 210.224 82.0694 210.945 80.6243C212.488 77.5268 214.273 74.5558 216.284 71.7389Z" fill="#3F3D56"/>
<path d="M127.695 1.76064C127.14 1.81643 126.582 1.82943 126.025 1.79951C125.93 1.78916 125.835 1.81642 125.76 1.87544C125.685 1.93445 125.636 2.0205 125.624 2.11504L124.559 10.0904C124.477 10.6693 124.24 11.2153 123.872 11.6703C123.569 12.0325 123.343 12.4529 123.21 12.9057C123.076 13.3584 123.037 13.8337 123.095 14.3021V27.8496C123.095 27.8496 123.027 29.6559 124.417 29.6559C126.081 29.8647 127.765 29.8647 129.428 29.6559C129.428 29.6559 130.542 29.4456 130.542 27.7787V14.4393C130.627 13.9739 130.609 13.4956 130.49 13.0376C130.372 12.5796 130.155 12.1529 129.854 11.7869C129.499 11.3302 129.269 10.7887 129.188 10.2161L128.082 2.07389C128.069 1.98234 128.022 1.89901 127.95 1.84083C127.878 1.78264 127.787 1.75397 127.695 1.76064Z" fill="#3F3D56"/>
<path d="M127.702 14.5444H126.013C124.616 14.5444 123.483 15.6756 123.483 17.071V23.4115C123.483 24.8069 124.616 25.9381 126.013 25.9381H127.702C129.099 25.9381 130.232 24.8069 130.232 23.4115V17.071C130.232 15.6756 129.099 14.5444 127.702 14.5444Z" fill="#38D39F"/>
<path d="M143.499 13.4218C142.944 13.4776 142.386 13.4906 141.829 13.4607C141.734 13.4503 141.639 13.4776 141.564 13.5366C141.489 13.5956 141.44 13.6816 141.428 13.7762L140.363 21.7515C140.281 22.3304 140.044 22.8764 139.676 23.3315C139.373 23.6936 139.147 24.1141 139.014 24.5668C138.88 25.0196 138.841 25.4949 138.899 25.9632V39.5107C138.899 39.5107 138.831 41.3171 140.221 41.3171C141.885 41.5258 143.569 41.5258 145.233 41.3171C145.233 41.3171 146.346 41.1067 146.346 39.4399V26.1004C146.431 25.635 146.413 25.1568 146.294 24.6988C146.176 24.2408 145.959 23.814 145.659 23.4481C145.303 22.9914 145.073 22.4499 144.992 21.8773L143.886 13.735C143.873 13.6435 143.826 13.5602 143.754 13.502C143.682 13.4438 143.591 13.4151 143.499 13.4218Z" fill="#3F3D56"/>
<path d="M143.505 26.2056H141.817C140.42 26.2056 139.286 27.3368 139.286 28.7322V35.0726C139.286 36.468 140.42 37.5992 141.817 37.5992H143.505C144.903 37.5992 146.036 36.468 146.036 35.0726V28.7322C146.036 27.3368 144.903 26.2056 143.505 26.2056Z" fill="#38D39F"/>
<g opacity="0.2">
<path opacity="0.2" d="M125.734 150.047C125.727 150.294 125.698 150.539 125.649 150.781C124.055 150.528 122.452 150.299 120.839 150.095C120.839 150.031 120.839 149.965 120.839 149.898C120.854 149.213 121.052 148.543 121.412 147.959C121.884 147.214 122.601 146.748 123.391 146.773C124.181 146.798 124.866 147.308 125.29 148.078C125.61 148.684 125.764 149.363 125.734 150.047Z" fill="#3F3D56"/>
<path opacity="0.2" d="M125.863 146.143C125.919 144.374 124.867 142.906 123.514 142.863C122.161 142.821 121.019 144.22 120.963 145.988C120.907 147.756 121.959 149.224 123.312 149.267C124.664 149.31 125.807 147.911 125.863 146.143Z" fill="#3F3D56"/>
<path opacity="0.2" d="M125.988 142.228C126.044 140.46 124.992 138.992 123.639 138.949C122.286 138.906 121.144 140.305 121.088 142.073C121.032 143.842 122.084 145.31 123.437 145.352C124.789 145.395 125.932 143.996 125.988 142.228Z" fill="#3F3D56"/>
<path opacity="0.2" d="M126.11 138.313C126.166 136.545 125.115 135.077 123.762 135.034C122.409 134.992 121.267 136.391 121.211 138.159C121.155 139.927 122.206 141.395 123.559 141.438C124.912 141.481 126.054 140.082 126.11 138.313Z" fill="#3F3D56"/>
<path opacity="0.2" d="M126.235 134.399C126.291 132.63 125.24 131.162 123.887 131.12C122.534 131.077 121.392 132.476 121.336 134.244C121.28 136.012 122.331 137.481 123.684 137.523C125.037 137.566 126.179 136.167 126.235 134.399Z" fill="#3F3D56"/>
<path opacity="0.2" d="M115.45 107.235C115.127 106.799 114.836 106.34 114.58 105.863L121.052 105.01L114.085 104.843C113.463 103.371 113.149 101.787 113.161 100.189C113.173 98.5917 113.512 97.0133 114.156 95.5506L123.345 100.684L114.928 94.0895C115.777 92.7185 116.9 91.537 118.227 90.6188C119.554 89.7006 121.057 89.0654 122.641 88.7529C124.225 88.4404 125.856 88.4573 127.434 88.8026C129.011 89.1478 130.5 89.814 131.808 90.7596C133.115 91.7051 134.214 92.9096 135.034 94.298C135.854 95.6863 136.379 97.2286 136.576 98.8285C136.772 100.428 136.636 102.052 136.176 103.597C135.716 105.142 134.942 106.576 133.902 107.809C134.403 108.487 134.83 109.217 135.173 109.988L126.678 114.058L135.686 111.353C136.253 113.221 136.345 115.202 135.952 117.114C135.559 119.027 134.695 120.812 133.437 122.307C134.745 124.079 135.527 126.182 135.694 128.376C135.861 130.57 135.405 132.767 134.381 134.715C133.356 136.664 131.802 138.285 129.898 139.393C127.993 140.501 125.815 141.052 123.612 140.983C121.409 140.914 119.269 140.227 117.439 139.001C115.608 137.775 114.16 136.059 113.26 134.051C112.36 132.042 112.045 129.821 112.35 127.641C112.655 125.462 113.568 123.412 114.985 121.726C113.422 119.609 112.618 117.03 112.701 114.401C112.784 111.773 113.75 109.249 115.443 107.235H115.45Z" fill="#38D39F"/>
<path opacity="0.1" d="M136.185 115.141C136.105 117.771 135.137 120.296 133.437 122.307C134.745 124.079 135.527 126.182 135.694 128.376C135.861 130.57 135.406 132.767 134.381 134.715C133.356 136.664 131.802 138.285 129.898 139.393C127.994 140.501 125.815 141.052 123.612 140.983C121.409 140.914 119.269 140.227 117.439 139.001C115.608 137.775 114.16 136.059 113.26 134.051C112.36 132.042 112.045 129.821 112.35 127.641C112.655 125.462 113.568 123.412 114.985 121.726C113.48 119.685 136.227 113.827 136.185 115.141Z" fill="black"/>
</g>
</g>
<defs>
<clipPath id="clip0">
<rect width="260" height="163" fill="white"/>
</clipPath>
</defs>
</svg>
